<svg width="18" height="17" viewBox="0 0 18 17" fill="none" xmlns="http://www.w3.org/2000/svg">
<path d="M6.79852 5.754C10.001 5.754 12.597 4.79352 12.597 3.60869C12.597 2.42387 10.001 1.46338 6.79852 1.46338C3.59609 1.46338 1 2.42387 1 3.60869C1 4.79352 3.59609 5.754 6.79852 5.754Z" stroke="#2166A5" stroke-miterlimit="10"/>
<path d="M10.8954 7.88241C9.84521 8.26991 8.39908 8.50859 6.79852 8.50859C3.5974 8.50859 1 7.54826 1 6.36328" stroke="#2166A5" stroke-miterlimit="10"/>
<path d="M9.68515 11.238C8.83432 11.4178 7.84872 11.5217 6.79852 11.5217C3.5974 11.5217 1 10.5613 1 9.37634" stroke="#2166A5" stroke-miterlimit="10"/>
<path d="M6.79852 14.2285C3.5974 14.2285 1 13.2682 1 12.0832V3.5918" stroke="#2166A5" stroke-miterlimit="10"/>
<path d="M12.5972 3.5918V6.09653" stroke="#2166A5" stroke-miterlimit="10"/>
<path d="M13.8156 12.2517C15.5742 12.2517 16.9999 10.8261 16.9999 9.06745C16.9999 7.30883 15.5742 5.88318 13.8156 5.88318C12.057 5.88318 10.6313 7.30883 10.6313 9.06745C10.6313 10.8261 12.057 12.2517 13.8156 12.2517Z" stroke="#2166A5" stroke-miterlimit="10"/>
<path d="M13.8157 10.3788C14.54 10.3788 15.1271 9.79167 15.1271 9.06744C15.1271 8.34321 14.54 7.7561 13.8157 7.7561C13.0915 7.7561 12.5044 8.34321 12.5044 9.06744C12.5044 9.79167 13.0915 10.3788 13.8157 10.3788Z" stroke="#2166A5" stroke-miterlimit="10"/>
<path d="M10.8117 10.1261L6.68115 14.2286V16.2925H8.50635L8.99775 15.8039H10.1322V14.6751H11.4351V13.5069H12.5808V12.0383" stroke="#2166A5" stroke-linecap="round" stroke-linejoin="round"/>
<path d="M8.51172 14.5654L11.6286 11.3811" stroke="#2166A5" stroke-linecap="round" stroke-linejoin="round"/>
</svg>
