<svg width="16" height="18" viewBox="0 0 16 18" fill="none" xmlns="http://www.w3.org/2000/svg">
<path d="M8.18344 6.58027C12.1507 6.58027 15.3669 5.40016 15.3669 3.94443C15.3669 2.4887 12.1507 1.30859 8.18344 1.30859C4.21614 1.30859 1 2.4887 1 3.94443C1 5.40016 4.21614 6.58027 8.18344 6.58027Z" stroke="#2166A5" stroke-miterlimit="10"/>
<path d="M15.3669 7.33252C15.3669 8.78955 12.15 9.96836 8.18344 9.96836C4.21687 9.96836 1 8.78955 1 7.33252" stroke="#2166A5" stroke-miterlimit="10"/>
<path d="M15.3669 11.038C15.3669 12.495 12.15 13.6738 8.18344 13.6738C4.21687 13.6738 1 12.4929 1 11.038" stroke="#2166A5" stroke-miterlimit="10"/>
<path d="M15.3669 3.92383V14.3641C15.3669 15.8212 12.15 17 8.18344 17C4.21687 17 1 15.8212 1 14.3641V3.92383" stroke="#2166A5" stroke-miterlimit="10"/>
</svg>
