<svg width="21" height="12" viewBox="0 0 21 12" fill="none" xmlns="http://www.w3.org/2000/svg">
<path d="M1.04604 5.93831C1.43245 5.56275 1.80735 5.17065 2.21021 4.81329C3.51908 3.65187 4.95456 2.68568 6.56105 1.9842C8.12478 1.30092 9.751 0.928669 11.466 1.01139C12.1895 1.04613 12.9015 1.1636 13.5987 1.36213C14.8566 1.72114 15.9961 2.3184 17.0517 3.08771C17.9051 3.70978 18.6763 4.42284 19.3883 5.20208C19.6201 5.45521 19.8421 5.71661 20.0707 5.97636C20.046 6.00945 20.0263 6.03427 20.0065 6.05908C18.821 7.47859 17.425 8.64497 15.807 9.5334C14.4175 10.2961 12.941 10.7742 11.3558 10.8851C11.2473 10.8934 11.1388 10.9016 11.0303 10.9116H10.3298C10.3051 10.9066 10.2821 10.9 10.2574 10.8983C9.68358 10.8752 9.1163 10.7974 8.55559 10.6733C7.33387 10.4053 6.19272 9.92716 5.11406 9.29847C3.85123 8.56225 2.7183 7.65396 1.66759 6.63979C1.44396 6.42471 1.22034 6.19971 1 5.98132L1.0444 5.93831H1.04604Z" stroke="#2166A5" stroke-linecap="round" stroke-linejoin="round"/>
<path d="M10.6179 3.10419C11.8199 3.10419 12.9759 3.9463 13.3277 5.1375C13.6961 6.3866 13.2011 7.67375 12.083 8.37027C10.7264 9.21734 8.89797 8.79215 8.0528 7.43221C7.18296 6.0342 7.70914 4.18289 9.18902 3.43012C9.61489 3.21339 10.0654 3.1075 10.6179 3.10254V3.10419Z" stroke="#2166A5" stroke-linecap="round" stroke-linejoin="round"/>
</svg>
