<svg width="22" height="11" viewBox="0 0 22 11" fill="none" xmlns="http://www.w3.org/2000/svg">
<path d="M10.9849 6.49906C12.6102 6.49906 13.9277 5.21209 13.9277 3.62453C13.9277 2.03697 12.6102 0.75 10.9849 0.75C9.35956 0.75 8.04199 2.03697 8.04199 3.62453C8.04199 5.21209 9.35956 6.49906 10.9849 6.49906Z" stroke="white" stroke-miterlimit="10"/>
<path d="M6.63113 10.7529C6.63113 8.40456 8.5806 6.50037 10.9848 6.50037C13.3889 6.50037 15.3384 8.40456 15.3384 10.7529" stroke="white" stroke-miterlimit="10"/>
<path d="M17.1611 7.00184C18.5949 7.00184 19.7572 5.86648 19.7572 4.46595C19.7572 3.06541 18.5949 1.93005 17.1611 1.93005C15.7272 1.93005 14.5649 3.06541 14.5649 4.46595C14.5649 5.86648 15.7272 7.00184 17.1611 7.00184Z" stroke="white" stroke-miterlimit="10"/>
<path d="M14.3824 8.16481C15.0811 7.44845 16.0679 7.00171 17.1613 7.00171C19.2814 7.00171 21.0002 8.68058 21.0002 10.7515" stroke="white" stroke-miterlimit="10"/>
<path d="M4.83742 7.00184C6.27125 7.00184 7.4336 5.86648 7.4336 4.46595C7.4336 3.06541 6.27125 1.93005 4.83742 1.93005C3.40359 1.93005 2.24124 3.06541 2.24124 4.46595C2.24124 5.86648 3.40359 7.00184 4.83742 7.00184Z" stroke="white" stroke-miterlimit="10"/>
<path d="M7.59112 8.13745C6.89374 7.43673 5.91767 7.00171 4.83893 7.00171C2.71878 7.00171 1 8.68058 1 10.7515" stroke="white" stroke-miterlimit="10"/>
</svg>
