<svg width="17" height="17" viewBox="0 0 17 17" fill="none" xmlns="http://www.w3.org/2000/svg">
<path d="M8.32194 15.6439C12.3657 15.6439 15.6439 12.3657 15.6439 8.32194C15.6439 4.27814 12.3657 1 8.32194 1C4.27814 1 1 4.27814 1 8.32194C1 12.3657 4.27814 15.6439 8.32194 15.6439Z" stroke="#2166A5" stroke-miterlimit="10"/>
<path d="M9.10815 7.11963V13.0669" stroke="#2166A5" stroke-miterlimit="10"/>
<path d="M9.75439 7.11963H7" stroke="#2166A5" stroke-miterlimit="10"/>
<path d="M11.1524 13.0669H7.06763" stroke="#2166A5" stroke-miterlimit="10"/>
<path d="M8.47443 5.82336C8.97793 5.82336 9.38611 5.41519 9.38611 4.91168C9.38611 4.40817 8.97793 4 8.47443 4C7.97092 4 7.56274 4.40817 7.56274 4.91168C7.56274 5.41519 7.97092 5.82336 8.47443 5.82336Z" stroke="#2166A5" stroke-miterlimit="10"/>
</svg>
