<svg width="17" height="20" viewBox="0 0 17 20" fill="none" xmlns="http://www.w3.org/2000/svg">
<path d="M8.26994 15.7576C8.53721 15.7576 8.80661 15.7639 9.07388 15.7555C9.30052 15.7471 9.4288 15.6039 9.42667 15.3807C9.42667 15.2965 9.41384 15.2102 9.40315 15.1259C9.33473 14.509 9.26845 13.8921 9.19361 13.2773C9.17864 13.151 9.21285 13.071 9.31121 12.9867C9.64903 12.6941 9.82008 12.3214 9.82863 11.875C9.8436 11.1781 9.3839 10.5591 8.7104 10.3633C8.02834 10.1654 7.30993 10.4328 6.93362 11.0244C6.56159 11.6118 6.61504 12.4035 7.11536 12.8773C7.33559 13.0857 7.33986 13.2794 7.30565 13.5363C7.2244 14.13 7.1624 14.7259 7.10467 15.3218C7.07687 15.6081 7.21585 15.7513 7.5045 15.7576C7.75893 15.7639 8.01123 15.7576 8.26567 15.7576H8.26994Z" stroke="#2166A5" stroke-miterlimit="10"/>
<path d="M2.50096 7.04068H14.0276C14.855 7.04068 15.5285 7.70181 15.5285 8.51875V17.4482C15.5285 18.3052 14.8229 19 13.9527 19H2.57579C1.70558 19 1 18.3052 1 17.4482V8.51664C1 7.70181 1.67137 7.03857 2.50096 7.03857V7.04068Z" stroke="#2166A5" stroke-miterlimit="10"/>
<path d="M3.77777 7.04072V5.41947C3.77777 2.97708 5.78546 1 8.26354 1C10.7416 1 12.7493 2.97708 12.7493 5.41737V7.05545" stroke="#2166A5" stroke-miterlimit="10"/>
</svg>
