<svg width="17" height="17" viewBox="0 0 17 17" fill="none" xmlns="http://www.w3.org/2000/svg">
<path d="M15.9761 4.98543C15.94 5.26822 15.8919 5.41769 15.8919 5.41769C15.5152 6.98517 14.1007 8.16885 12.5338 7.96282C11.6843 7.8497 11.1954 8.12441 10.7305 8.67787C10.6584 8.76271 10.5823 8.84351 10.5061 8.92027C8.26604 11.1786 6.02597 13.4368 3.78189 15.6911C3.19683 16.2809 2.40338 16.3981 1.76222 16.0102C0.848557 15.4608 0.736352 14.2448 1.5338 13.4409C4.05839 10.8998 6.58298 8.35872 9.11559 5.82168C9.30794 5.63181 9.38007 5.46213 9.33599 5.18742C9.03544 3.4018 10.0894 1.77777 11.8365 1.34146C12.3615 1.20815 12.8985 1.18391 13.4875 1.38994C12.9265 1.94744 12.4096 2.47263 11.8806 2.98165C11.8365 3.02609 11.8125 3.08669 11.8205 3.14729L12.0449 4.87635C12.0569 4.95715 12.113 5.02179 12.1932 5.04199L14.0726 5.47021C14.1407 5.48637 14.2089 5.46213 14.2569 5.41366C14.7338 4.90059 15.3309 4.30269 15.8478 3.76943C15.9801 4.16129 16.0322 4.5774 15.9801 4.98947L15.9761 4.98543Z" stroke="#2166A5" stroke-miterlimit="10"/>
</svg>
