<svg width="26" height="25" viewBox="0 0 26 25" fill="none" xmlns="http://www.w3.org/2000/svg">
<path d="M1.48957 10.7632C1.76797 10.1488 2.22877 9.88 2.90077 9.928C3.40957 9.9664 3.92797 9.928 4.42717 9.928C4.76317 9.208 5.08957 8.5072 5.44477 7.7296C5.11837 7.4128 4.75357 7.0672 4.38877 6.712C3.76477 6.088 3.75517 5.4928 4.38877 4.8688C4.87837 4.3792 5.34877 3.8992 5.84797 3.4096C6.40477 2.8528 6.99037 2.8528 7.55677 3.4096C7.93117 3.7648 8.29597 4.1296 8.65117 4.4944C8.76637 4.6096 8.86237 4.648 9.03517 4.5712C9.61117 4.3312 10.1872 4.1008 10.792 3.8992C10.984 3.832 11.032 3.736 11.032 3.5632V2.1904C11.0128 1.4512 11.464 1 12.1744 1H14.4112C15.112 1 15.5536 1.4416 15.5824 2.1616V3.736C15.5824 3.8416 15.6784 3.9952 15.7648 4.0336C16.408 4.3312 17.0704 4.6288 17.7808 4.936C18.1168 4.5904 18.4816 4.2064 18.8656 3.8224C19.4128 3.2752 20.0368 3.2752 20.5936 3.8224C21.1024 4.3312 21.6208 4.84 22.12 5.3488C22.648 5.896 22.648 6.4912 22.12 7.0384C21.7072 7.4512 21.2656 7.864 20.872 8.2288C21.1696 9.0256 21.448 9.7552 21.736 10.5136H23.2528C24.088 10.5136 24.5104 10.9456 24.5104 11.7904V13.8832C24.5104 14.6704 24.0688 15.0832 23.2912 15.1024H21.7552C21.6592 15.1024 21.5152 15.1792 21.4768 15.2752C21.1792 15.928 20.9008 16.5808 20.5936 17.2528C20.92 17.5888 21.2752 17.9632 21.6304 18.3184C22.2352 18.9232 22.2352 19.5664 21.6304 20.1712C21.1312 20.6704 20.6224 21.1696 20.1136 21.6688C19.6144 22.1584 19 22.1584 18.5104 21.6688C18.1264 21.2944 17.7616 20.9008 17.368 20.536C17.3008 20.4688 17.1472 20.4208 17.0512 20.4592C16.3792 20.7184 15.7168 20.9968 14.9968 21.2848V22.792C14.9968 23.5984 14.5552 24.04 13.7488 24.04H11.6176C10.84 24.04 10.4176 23.5984 10.3984 22.8208V21.3136C10.3984 21.1312 10.3408 21.0448 10.1584 20.968C9.58237 20.728 9.02557 20.4304 8.44957 20.1904C8.35357 20.152 8.18077 20.1712 8.11357 20.2384C7.76797 20.5552 7.45117 20.9008 7.11517 21.2368C6.58717 21.7552 5.91517 21.7744 5.37757 21.2368C4.85917 20.728 4.34077 20.2096 3.83197 19.672C3.31357 19.1344 3.33277 18.5392 3.85117 18.0016C4.22557 17.6272 4.59997 17.2624 4.96477 16.8784C5.03197 16.8112 5.06077 16.6384 5.02237 16.5424C4.81117 15.9376 4.56157 15.352 4.35037 14.7472C4.29277 14.5648 4.19677 14.5264 4.03357 14.5264C3.63997 14.5264 3.25597 14.5072 2.86237 14.5264C2.17117 14.5744 1.69117 14.296 1.45117 13.6336V10.7632H1.46077H1.48957Z" stroke="#2166A5" stroke-miterlimit="10"/>
<path d="M13.0192 17.1088C15.5632 17.1088 17.5888 15.0736 17.5888 12.52C17.5888 9.96639 15.544 7.92159 12.9808 7.93119C10.4176 7.93119 8.40157 9.96639 8.41117 12.5488C8.41117 15.0832 10.4656 17.1088 13 17.0992H13.0096L13.0192 17.1088Z" stroke="#58A0FD" stroke-miterlimit="10"/>
</svg>
