<svg width="17" height="17" viewBox="0 0 17 17" fill="none" xmlns="http://www.w3.org/2000/svg">
<path d="M1.025 7.35625C1.20625 6.95625 1.50625 6.78125 1.94375 6.8125C2.275 6.8375 2.6125 6.8125 2.9375 6.8125C3.15625 6.34375 3.36875 5.8875 3.6 5.38125C3.3875 5.175 3.15 4.95 2.9125 4.71875C2.50625 4.3125 2.5 3.925 2.9125 3.51875C3.23125 3.2 3.5375 2.8875 3.8625 2.56875C4.225 2.20625 4.60625 2.20625 4.975 2.56875C5.21875 2.8 5.45625 3.0375 5.6875 3.275C5.7625 3.35 5.825 3.375 5.9375 3.325C6.3125 3.16875 6.6875 3.01875 7.08125 2.8875C7.20625 2.84375 7.2375 2.78125 7.2375 2.66875V1.775C7.225 1.29375 7.51875 1 7.98125 1H9.4375C9.89375 1 10.1812 1.2875 10.2 1.75625V2.78125C10.2 2.85 10.2625 2.95 10.3187 2.975C10.7375 3.16875 11.1687 3.3625 11.6312 3.5625C11.85 3.3375 12.0875 3.0875 12.3375 2.8375C12.6937 2.48125 13.1 2.48125 13.4625 2.8375C13.7937 3.16875 14.1312 3.5 14.4562 3.83125C14.8 4.1875 14.8 4.575 14.4562 4.93125C14.1875 5.2 13.9 5.46875 13.6437 5.70625C13.8375 6.225 14.0187 6.7 14.2062 7.19375H15.1937C15.7375 7.19375 16.0125 7.475 16.0125 8.025V9.3875C16.0125 9.9 15.725 10.1687 15.2187 10.1812H14.2187C14.1562 10.1812 14.0625 10.2312 14.0375 10.2937C13.8437 10.7187 13.6625 11.1438 13.4625 11.5813C13.675 11.8 13.9062 12.0438 14.1375 12.275C14.5312 12.6688 14.5312 13.0875 14.1375 13.4812C13.8125 13.8062 13.4812 14.1313 13.15 14.4563C12.825 14.775 12.425 14.775 12.1062 14.4563C11.8562 14.2125 11.6187 13.9563 11.3625 13.7188C11.3187 13.675 11.2187 13.6438 11.1562 13.6688C10.7187 13.8375 10.2875 14.0187 9.81875 14.2062V15.1875C9.81875 15.7125 9.53125 16 9.00625 16H7.61875C7.1125 16 6.8375 15.7125 6.825 15.2062V14.225C6.825 14.1062 6.7875 14.05 6.66875 14C6.29375 13.8437 5.93125 13.65 5.55625 13.4937C5.49375 13.4687 5.38125 13.4813 5.3375 13.525C5.1125 13.7313 4.90625 13.9562 4.6875 14.175C4.34375 14.5125 3.90625 14.525 3.55625 14.175C3.21875 13.8437 2.88125 13.5063 2.55 13.1563C2.2125 12.8063 2.225 12.4187 2.5625 12.0687C2.80625 11.825 3.05 11.5875 3.2875 11.3375C3.33125 11.2938 3.35 11.1813 3.325 11.1188C3.1875 10.725 3.025 10.3437 2.8875 9.95C2.85 9.83125 2.7875 9.80625 2.68125 9.80625C2.425 9.80625 2.175 9.79375 1.91875 9.80625C1.46875 9.8375 1.15625 9.65625 1 9.225V7.35625H1.00625H1.025Z" stroke="#2166A5" stroke-miterlimit="10"/>
<path d="M8.53143 11.4876C10.1877 11.4876 11.5064 10.1626 11.5064 8.5001C11.5064 6.8376 10.1752 5.50635 8.50642 5.5126C6.83767 5.5126 5.52517 6.8376 5.53142 8.51884C5.53142 10.1688 6.86892 11.4876 8.51892 11.4813H8.52517L8.53143 11.4876Z" stroke="#2166A5" stroke-miterlimit="10"/>
</svg>
