<svg width="24" height="24" viewBox="0 0 24 24" fill="none" xmlns="http://www.w3.org/2000/svg">
<path d="M0.0384 9.7632C0.3168 9.1488 0.7776 8.88 1.4496 8.928C1.9584 8.9664 2.4768 8.928 2.976 8.928C3.312 8.208 3.6384 7.5072 3.9936 6.7296C3.6672 6.4128 3.3024 6.0672 2.9376 5.712C2.3136 5.088 2.304 4.4928 2.9376 3.8688C3.4272 3.3792 3.8976 2.8992 4.3968 2.4096C4.9536 1.8528 5.5392 1.8528 6.1056 2.4096C6.48 2.7648 6.8448 3.1296 7.2 3.4944C7.3152 3.6096 7.4112 3.648 7.584 3.5712C8.16 3.3312 8.736 3.1008 9.3408 2.8992C9.5328 2.832 9.5808 2.736 9.5808 2.5632V1.1904C9.5616 0.4512 10.0128 0 10.7232 0H12.96C13.6608 0 14.1024 0.4416 14.1312 1.1616V2.736C14.1312 2.8416 14.2272 2.9952 14.3136 3.0336C14.9568 3.3312 15.6192 3.6288 16.3296 3.936C16.6656 3.5904 17.0304 3.2064 17.4144 2.8224C17.9616 2.2752 18.5856 2.2752 19.1424 2.8224C19.6512 3.3312 20.1696 3.84 20.6688 4.3488C21.1968 4.896 21.1968 5.4912 20.6688 6.0384C20.256 6.4512 19.8144 6.864 19.4208 7.2288C19.7184 8.0256 19.9968 8.7552 20.2848 9.5136H21.8016C22.6368 9.5136 23.0592 9.9456 23.0592 10.7904V12.8832C23.0592 13.6704 22.6176 14.0832 21.84 14.1024H20.304C20.208 14.1024 20.064 14.1792 20.0256 14.2752C19.728 14.928 19.4496 15.5808 19.1424 16.2528C19.4688 16.5888 19.824 16.9632 20.1792 17.3184C20.784 17.9232 20.784 18.5664 20.1792 19.1712C19.68 19.6704 19.1712 20.1696 18.6624 20.6688C18.1632 21.1584 17.5488 21.1584 17.0592 20.6688C16.6752 20.2944 16.3104 19.9008 15.9168 19.536C15.8496 19.4688 15.696 19.4208 15.6 19.4592C14.928 19.7184 14.2656 19.9968 13.5456 20.2848V21.792C13.5456 22.5984 13.104 23.04 12.2976 23.04H10.1664C9.3888 23.04 8.9664 22.5984 8.9472 21.8208V20.3136C8.9472 20.1312 8.8896 20.0448 8.7072 19.968C8.1312 19.728 7.5744 19.4304 6.9984 19.1904C6.9024 19.152 6.7296 19.1712 6.6624 19.2384C6.3168 19.5552 6 19.9008 5.664 20.2368C5.136 20.7552 4.464 20.7744 3.9264 20.2368C3.408 19.728 2.8896 19.2096 2.3808 18.672C1.8624 18.1344 1.8816 17.5392 2.4 17.0016C2.7744 16.6272 3.1488 16.2624 3.5136 15.8784C3.5808 15.8112 3.6096 15.6384 3.5712 15.5424C3.36 14.9376 3.1104 14.352 2.8992 13.7472C2.8416 13.5648 2.7456 13.5264 2.5824 13.5264C2.1888 13.5264 1.8048 13.5072 1.4112 13.5264C0.72 13.5744 0.24 13.296 0 12.6336V9.7632H0.00959999H0.0384Z" fill="white"/>
<path d="M11.568 16.1088C14.112 16.1088 16.1376 14.0736 16.1376 11.52C16.1376 8.96639 14.0928 6.92159 11.5296 6.93119C8.96639 6.93119 6.9504 8.96639 6.96 11.5488C6.96 14.0832 9.0144 16.1088 11.5488 16.0992H11.5584L11.568 16.1088Z" fill="#0F2B59"/>
</svg>
