<svg width="17" height="17" viewBox="0 0 17 17" fill="none" xmlns="http://www.w3.org/2000/svg">
<path d="M8.49994 15.9999C12.642 15.9999 15.9999 12.642 15.9999 8.49994C15.9999 4.35784 12.642 1 8.49994 1C4.35784 1 1 4.35784 1 8.49994C1 12.642 4.35784 15.9999 8.49994 15.9999Z" stroke="#2166A5" stroke-miterlimit="10"/>
<path d="M8.50013 12.101C10.4889 12.101 12.1011 10.4888 12.1011 8.50001C12.1011 6.51125 10.4889 4.89905 8.50013 4.89905C6.51138 4.89905 4.89917 6.51125 4.89917 8.50001C4.89917 10.4888 6.51138 12.101 8.50013 12.101Z" stroke="#2166A5" stroke-miterlimit="10"/>
<path d="M10.8877 5.86051L13.6337 3.03296" stroke="#2166A5" stroke-miterlimit="10"/>
<path d="M3.18555 13.7934L5.87474 11.0226" stroke="#2166A5" stroke-miterlimit="10"/>
<path d="M5.85685 5.93492L3.0293 3.18896" stroke="#2166A5" stroke-miterlimit="10"/>
<path d="M13.7898 13.6371L11.019 10.9479" stroke="#2166A5" stroke-miterlimit="10"/>
</svg>
